<?xml version="1.0" encoding="UTF-8"?>
<!DOCTYPE svg PUBLIC "-//W3C//DTD SVG 1.1//EN" "http://www.w3.org/Graphics/SVG/1.1/DTD/svg11.dtd">
<!-- Creator: CorelDRAW 2017 -->
<svg xmlns="http://www.w3.org/2000/svg" xml:space="preserve" width="93.0408mm" height="57.0959mm" version="1.1" style="shape-rendering:geometricPrecision; text-rendering:geometricPrecision; image-rendering:optimizeQuality; fill-rule:evenodd; clip-rule:evenodd"
viewBox="0 0 4479 2748.61"
 xmlns:xlink="http://www.w3.org/1999/xlink">
 <defs>
  <style type="text/css">
   <![CDATA[
    .fil2 {fill:#0098DA}
    .fil3 {fill:#0098DA}
    .fil0 {fill:#292E52}
    .fil4 {fill:#FEFEFE;fill-rule:nonzero}
    .fil1 {fill:#0098DA;fill-rule:nonzero}
   ]]>
  </style>
 </defs>
 <g id="Capa_x0020_1">
  <metadata id="CorelCorpID_0Corel-Layer"/>
  <g id="_2724394111344">
   <path class="fil0" d="M1536.3 1688.83c0,-14.72 -12.62,-22.08 -38.38,-22.08 -25.76,0 -38.38,7.36 -38.38,22.08l0 334.39c0,14.72 12.62,22.08 38.38,22.08 25.76,0 38.38,-7.36 38.38,-22.08l0 -334.39zm164.84 334.92c0,14.2 12.09,21.56 35.75,21.56 23.67,0 35.75,-7.36 35.75,-21.56l0 -164.57c0,-21.55 9.99,-33.65 28.39,-33.65 18.93,0 28.39,11.57 28.39,34.18l0 164.04c0,14.2 12.09,21.56 35.75,21.56 23.66,0 35.75,-7.36 35.75,-21.56l0 -160.88c0,-30.5 -8.94,-54.68 -27.34,-72.03 -18.4,-17.35 -41.01,-26.28 -68.35,-26.28 -29.97,0 -52.58,9.46 -68.35,28.91 -15.77,-19.45 -38.38,-28.91 -68.35,-28.91 -27.34,0 -49.95,8.93 -68.35,26.28 -18.4,17.35 -27.34,41.54 -27.34,72.03l0 160.88c0,14.2 12.09,21.56 35.75,21.56 23.66,0 35.75,-7.36 35.75,-21.56l0 -164.04c0,-22.61 9.46,-34.18 28.39,-34.18 18.4,0 28.39,12.1 28.39,33.65l0 164.57zm298.38 10.51c11.57,8.94 26.81,13.15 45.22,13.15 24.71,0 45.74,-8.41 64.15,-24.72 18.4,-16.3 27.33,-41.01 27.33,-73.61l0 -86.22c0,-31.02 -9.98,-55.21 -30.49,-72.56 -19.98,-17.35 -44.69,-25.76 -73.61,-25.76 -28.92,0 -53.1,8.41 -73.61,25.76 -20.51,17.35 -30.5,41.54 -30.5,72.56l0 272.35c0,14.2 12.09,21.56 35.75,21.56 23.66,0 35.75,-7.36 35.75,-21.56l0 -100.95zm65.2 -84.65c3.68,48.37 -68.87,48.37 -65.2,0l0 -87.27c-3.68,-48.38 68.88,-48.38 65.2,0l0 87.27zm93.33 74.14c0,14.2 12.09,21.56 35.75,21.56 23.66,0 35.75,-7.36 35.75,-21.56l0 -157.73c0,-25.24 15.78,-40.49 36.8,-40.49 13.15,0 25.24,5.26 35.23,16.3 8.94,9.99 25.24,7.89 39.43,-6.31 12.09,-12.62 14.2,-24.71 5.26,-35.75 -19.45,-23.66 -47.84,-35.22 -85.17,-35.22 -63.09,0 -103.05,39.96 -103.05,101.47l0 157.73zm327.3 -60.46c0,14.2 -12.09,25.76 -31.02,25.76 -18.93,0 -31.02,-10.51 -31.02,-28.91l0 -7.89c0,-6.84 7.36,-11.57 22.61,-15.25l43.64 -10.51c45.74,-11.04 68.87,-36.28 68.87,-75.19 0,-23.66 -9.46,-44.16 -28.39,-60.99 -18.93,-17.35 -43.64,-25.76 -74.13,-25.76 -29.97,0 -54.68,8.41 -74.66,24.71 -19.45,16.3 -29.44,40.48 -29.44,71.5l0 89.38c0,59.41 41.01,97.27 104.1,97.27 29.97,0 54.68,-7.89 73.08,-24.19 18.4,-16.3 27.86,-35.23 27.86,-57.84l0 -3.68c0,-14.2 -12.09,-21.56 -35.75,-21.56 -23.66,0 -35.75,7.36 -35.75,21.56l0 1.57zm-30.49 -140.38c18.93,0 32.08,9.99 32.08,26.29 0,12.61 -7.37,21.03 -21.56,24.71l-27.86 7.36c-7.36,2.1 -12.09,4.21 -14.2,6.31l0 -31.55c0,-20.5 11.04,-33.13 31.55,-33.13zm333.61 39.96c0,-31.02 -9.98,-54.68 -30.49,-72.03 -19.98,-17.35 -44.69,-26.28 -73.61,-26.28 -28.91,0 -53.62,8.93 -74.13,26.28 -19.98,17.35 -29.97,41.01 -29.97,72.03l0 160.88c0,14.2 12.09,21.56 35.75,21.56 23.66,0 35.75,-7.36 35.75,-21.56l0 -161.41c-3.68,-48.38 68.88,-48.38 65.2,0l0 161.41c0,14.2 12.09,21.56 35.75,21.56 23.66,0 35.75,-7.36 35.75,-21.56l0 -160.88zm124.88 -156.68c0,-14.2 -12.09,-21.55 -35.75,-21.55 -23.66,0 -35.75,7.36 -35.75,21.55l0 64.67 -32.08 0c-12.62,0 -18.92,9.99 -18.92,30.49 0,20.51 6.31,30.5 18.92,30.5l32.08 0 0 121.45c0,58.36 33.12,94.11 90.43,94.11 28.92,0 50.47,-6.31 64.67,-18.4 4.73,-3.68 6.83,-8.94 6.83,-15.77 0,-16.3 -13.14,-36.28 -27.34,-36.28 -3.68,0 -7.36,1.05 -11.04,3.15 -6.84,4.21 -14.72,6.31 -23.66,6.31 -16.82,0 -28.39,-13.14 -28.39,-32.6l0 -121.98 64.67 0c12.62,0 18.93,-9.99 18.93,-30.5 0,-20.5 -6.31,-30.49 -18.93,-30.49l-64.67 0 0 -64.67zm167.99 142.49c0,-14.2 12.09,-25.76 31.02,-25.76 18.93,0 31.02,10.52 31.02,28.92l0 7.89c0,6.84 -7.36,11.57 -22.61,15.25l-43.64 10.51c-45.74,11.04 -68.87,36.28 -68.87,75.19 0,23.66 9.46,44.16 28.39,61.52 18.93,16.82 43.64,25.24 74.13,25.24 29.97,0 54.68,-8.41 74.14,-24.72 19.98,-16.3 29.97,-40.48 29.97,-71.5l0 -89.39c0,-59.41 -41.01,-97.26 -104.1,-97.26 -29.97,0 -54.68,7.88 -73.08,24.18 -18.4,16.3 -27.86,35.23 -27.86,57.84l0 3.68c0,14.2 12.09,21.55 35.75,21.55 23.66,0 35.75,-7.36 35.75,-21.55l0 -1.58zm30.49 140.38c-18.93,0 -32.08,-9.98 -32.08,-26.28 0,-12.62 7.37,-21.03 21.56,-24.72l27.86 -7.36c7.36,-2.1 12.09,-4.21 14.2,-6.31l0 31.55c0,20.5 -11.04,33.12 -31.55,33.12z"/>
   <path class="fil1" d="M3488.25 1785.58c0,-36.28 -12.62,-65.72 -37.33,-87.8 -24.71,-22.08 -55.21,-33.13 -91.48,-33.13 -36.28,0 -67.3,11.04 -92.02,33.13 -24.71,22.08 -36.8,51.52 -36.8,87.8l0 140.91c0,36.28 12.09,65.72 36.8,87.8 24.72,22.08 55.73,33.13 92.02,33.13 36.27,0 66.77,-11.04 91.48,-33.13 24.71,-22.08 37.33,-51.52 37.33,-87.8l0 -140.91zm-76.76 137.22c0,36.28 -20.51,59.41 -52.05,59.41 -31.55,0 -52.05,-23.14 -52.05,-59.41l0 -133.54c0,-36.28 20.5,-59.41 52.05,-59.41 31.54,0 52.05,23.14 52.05,59.41l0 133.54zm313.1 -59.93c0,-31.02 -9.98,-54.68 -30.49,-72.03 -19.98,-17.35 -44.69,-26.28 -73.61,-26.28 -28.92,0 -53.63,8.93 -74.14,26.28 -19.98,17.35 -29.97,41.01 -29.97,72.03l0 160.88c0,14.2 12.09,21.56 35.75,21.56 23.66,0 35.75,-7.36 35.75,-21.56l0 -161.41c-3.68,-48.38 68.88,-48.38 65.2,0l0 161.41c0,14.2 12.09,21.56 35.75,21.56 23.66,0 35.75,-7.36 35.75,-21.56l0 -160.88zm101.22 -188.23c0,-14.19 -12.09,-21.56 -35.75,-21.56 -23.66,0 -35.75,7.37 -35.75,21.56l0 231.87c0,58.89 24.19,103.05 72.03,132.49 6.31,3.68 12.62,5.78 19.45,5.78 8.94,0 16.82,-4.2 24.19,-13.14 7.89,-8.94 11.57,-18.4 11.57,-27.86 0,-7.89 -4.73,-14.73 -13.67,-20.51 -27.87,-17.87 -42.06,-44.16 -42.06,-78.34l0 -230.29zm140.65 113.57c0,-14.2 -12.09,-21.56 -35.75,-21.56 -23.66,0 -35.75,7.36 -35.75,21.56l0 235.55c0,14.2 12.09,21.56 35.75,21.56 23.66,0 35.75,-7.36 35.75,-21.56l0 -235.55zm0 -95.16c0,-17.35 -12.09,-31.55 -35.75,-31.55 -23.66,0 -35.75,14.2 -35.75,31.55l0 12.09c0,17.35 12.09,31.55 35.75,31.55 23.66,0 35.75,-14.2 35.75,-31.55l0 -12.09zm239.49 169.82c0,-31.02 -9.99,-54.68 -30.5,-72.03 -19.98,-17.35 -44.69,-26.28 -73.61,-26.28 -28.92,0 -53.63,8.93 -74.13,26.28 -19.98,17.35 -29.97,41.01 -29.97,72.03l0 160.88c0,14.2 12.09,21.56 35.75,21.56 23.66,0 35.75,-7.36 35.75,-21.56l0 -161.41c-3.68,-48.38 68.87,-48.38 65.2,0l0 161.41c0,14.2 12.09,21.56 35.75,21.56 23.66,0 35.75,-7.36 35.75,-21.56l0 -160.88zm155.37 100.42c0,14.2 -12.09,25.76 -31.02,25.76 -18.92,0 -31.02,-10.51 -31.02,-28.91l0 -7.89c0,-6.84 7.36,-11.57 22.61,-15.25l43.64 -10.51c45.74,-11.04 68.87,-36.28 68.87,-75.19 0,-23.66 -9.46,-44.16 -28.39,-60.99 -18.93,-17.35 -43.64,-25.76 -74.13,-25.76 -29.97,0 -54.68,8.41 -74.67,24.71 -19.45,16.3 -29.44,40.48 -29.44,71.5l0 89.38c0,59.41 41.01,97.27 104.1,97.27 29.97,0 54.68,-7.89 73.08,-24.19 18.4,-16.3 27.86,-35.23 27.86,-57.84l0 -3.68c0,-14.2 -12.09,-21.56 -35.75,-21.56 -23.66,0 -35.75,7.36 -35.75,21.56l0 1.57zm-30.49 -140.38c18.93,0 32.07,9.99 32.07,26.29 0,12.61 -7.36,21.03 -21.56,24.71l-27.86 7.36c-7.36,2.1 -12.1,4.21 -14.2,6.31l0 -31.55c0,-20.5 11.04,-33.13 31.55,-33.13z"/>
   <path class="fil2" d="M1849.42 55.64c-86.79,16.05 -160.11,101.4 -140.38,210.49 15.45,85.46 103.57,157.13 209.24,137.69 85.69,-15.77 156.42,-101.86 137.56,-206.89 -15.61,-86.84 -98.7,-161.21 -206.42,-141.29zm200.83 961.95c11.88,8.97 76.12,141.19 83.24,154.47l161.61 315.79c17.28,35.64 22.61,47.6 48.55,71.03 17.34,15.66 39.36,27.18 66.48,31.63l0.03 0c1.21,0.18 40.32,5.92 84.58,-10.93 51.47,-22.45 93.76,-88.16 77.79,-158.44 -8.1,-35.66 -149.09,-300.88 -177.21,-356.46 -12.95,-25.61 -86.92,-164.27 -89.85,-178.3 98.77,25.74 202.24,94.28 289.35,18.36 65.39,-57 68.65,-198.29 -55.62,-240.08 -96.29,-32.38 -192.76,-60.69 -289.29,-93.42 -46.61,-15.81 -95.9,-30.23 -143.48,-46.05 -57.89,-19.24 -98.65,-31.96 -155.43,-0.99 -43.76,23.87 -55.73,59.03 -74.98,114.65 -16.58,47.88 -30.96,97.38 -46.91,146.19 -31.65,96.82 -63.43,192.32 -93.49,289.09 -35.39,113.92 62.32,216.28 172.89,183.44 47.36,-14.07 79.49,-48.53 95.04,-94.5 16.38,-48.45 31.56,-98.17 46.73,-145.47z"/>
   <path class="fil0" d="M309.83 547.51c0,-146.42 82.76,-237.68 210.09,-237.68 127.33,0 212.21,89.13 212.21,233.44l0 6.36c0,59.42 50.93,89.13 154.92,89.13 103.98,0 154.92,-29.71 154.92,-89.13l0 -21.22c0,-146.43 -50.93,-263.14 -150.67,-350.15 -99.74,-87.01 -222.83,-131.57 -371.37,-131.57 -146.43,0 -271.64,44.56 -371.38,133.69 -99.74,89.13 -148.55,207.97 -148.55,354.39l0 568.73c0,146.42 48.81,265.26 148.55,354.39 99.74,89.13 224.95,133.69 371.38,133.69 148.55,0 271.63,-44.57 371.37,-131.58 99.74,-87 150.67,-203.72 150.67,-350.15l0 -21.22c0,-59.42 -50.93,-89.13 -154.92,-89.13 -103.98,0 -154.92,29.71 -154.92,89.13l0 6.37c0,144.3 -84.89,233.43 -212.21,233.43 -127.33,0 -210.09,-91.25 -210.09,-237.68l0 -543.26z"/>
   <path class="fil0" d="M1405.71 87.01c0,-57.3 -48.81,-87.01 -144.3,-87.01 -95.5,0 -144.3,29.71 -144.3,87.01l0 935.85c0,237.68 97.62,415.94 290.73,534.78 25.47,14.85 50.93,23.34 78.52,23.34 36.08,0 67.91,-16.98 97.62,-53.06 31.84,-36.08 46.69,-74.28 46.69,-112.47 0,-31.83 -19.1,-59.41 -55.17,-82.76 -112.47,-72.15 -169.77,-178.26 -169.77,-316.2l0 -929.49z"/>
   <path class="fil0" d="M2714.64 1194.76c0,125.2 40.32,222.82 123.08,292.86 82.77,70.03 182.5,103.98 299.22,103.98 120.96,0 218.58,-36.08 297.1,-108.23 78.52,-72.15 118.84,-161.28 118.84,-265.26l0 -10.61c0,-57.3 -48.81,-87.01 -144.31,-87.01 -95.5,0 -144.3,29.71 -144.3,87.01l0 2.12c0,74.28 -46.69,135.81 -129.45,135.81 -76.39,0 -131.57,-53.05 -131.57,-146.42l0 -356.52c0,-93.37 55.18,-146.43 131.57,-146.43 82.76,0 129.45,61.54 129.45,135.81l0 2.12c0,57.3 48.81,87.01 144.3,87.01 95.5,0 144.31,-29.71 144.31,-87.01l0 -10.61c0,-103.98 -40.32,-193.11 -118.84,-265.27 -78.52,-72.15 -176.14,-108.22 -297.1,-108.22 -116.72,0 -216.46,33.95 -299.22,103.98 -82.76,70.03 -123.08,167.65 -123.08,292.86l0 348.03z"/>
   <path class="fil0" d="M4190.39 1496.1c0,57.3 48.81,87.01 144.3,87.01 95.5,0 144.3,-29.71 144.3,-87.01l0 -48.81c0,-120.96 -14.86,-216.46 -46.69,-290.73 -31.83,-74.28 -87.01,-142.18 -165.53,-207.97 120.96,-89.13 180.39,-210.09 180.39,-360.76l0 -42.45c0,-57.3 -48.81,-87.01 -144.31,-87.01 -95.5,0 -144.3,29.71 -144.3,87.01l0 21.23c0,95.5 -42.44,169.77 -125.2,224.94l-91.25 59.42c-14.86,8.49 -23.34,14.86 -25.47,21.22l0 -785.19c0,-57.3 -48.81,-87.01 -144.3,-87.01 -95.5,0 -144.3,29.71 -144.3,87.01l0 1409.09c0,57.3 48.81,87.01 144.3,87.01 95.5,0 144.3,-29.71 144.3,-87.01l0 -301.34c2.12,-14.86 19.1,-33.95 50.93,-55.17l72.15 -44.56c110.35,91.25 150.67,186.75 150.67,365l0 36.08z"/>
  </g>
  <polygon class="fil3" points="0.01,2264.58 4478.99,2264.58 4478.99,2748.61 0.01,2748.61 "/>
  <path class="fil4" d="M1820.78 2581.1c0,17.43 29.52,17.78 29.52,17.78l43.74 0c51.93,0 87.49,-18.85 87.49,-61.88l0 -10.67c0,-24.54 -13.51,-44.46 -33.43,-53.71 18.14,-8.54 29.88,-27.74 29.88,-51.93l0 -10.67c0,-44.81 -35.21,-60.11 -83.94,-60.11l-73.26 0 0 231.18zm76.11 -96.03c38.06,0 54.77,17.43 54.77,46.59 0,30.23 -17.43,42.68 -57.62,42.68l-43.39 0 0 -89.27 46.23 0zm-2.85 -110.62c36.63,0 54.06,10.67 54.06,40.9 0,29.52 -13.16,45.17 -51.22,45.17l-46.23 0 0 -86.07 43.39 0zm123.06 44.11l7.12 69.36c4.62,45.88 31.65,81.45 50.5,90.7 -25.61,18.14 -49.08,40.19 -49.08,71.49 0,30.23 18.5,35.57 29.17,35.57 3.91,0 7.11,-1.42 7.82,-1.78 -5.69,-12.45 -8.18,-22.77 -8.18,-32.01 0,-24.54 17.78,-39.47 41.97,-58.33l13.87 -10.67c20.98,-16 47.66,-47.3 52.64,-94.96l7.12 -69.36c0,0 -27.39,0 -29.52,17.78l-7.11 59.4c-4.98,42.32 -39.84,67.94 -39.84,67.94 0,0 -34.86,-25.61 -39.84,-67.94l-7.12 -59.4c-2.13,-17.78 -29.52,-17.78 -29.52,-17.78zm194.55 173.56c0,3.56 3.2,6.76 6.75,6.76l23.83 0 0 -24.9c0,-3.56 -3.2,-6.75 -6.4,-6.75l-24.19 0 0 24.89zm0 -129.11c0,3.56 3.2,6.76 6.75,6.76l23.83 0 0 -24.9c0,-3.56 -3.2,-6.76 -6.4,-6.76l-24.19 0 0 24.9zm181.75 70.42c-5.69,11.02 -8.18,20.63 -8.18,28.45 0,34.15 48.73,41.26 91.05,41.26 52.29,0 92.83,-25.25 92.83,-75.4 0,-106.35 -157.91,-46.59 -157.91,-113.82 0,-31.3 24.89,-41.97 63.31,-41.97 40.19,0 77.89,6.05 77.89,43.39 5.69,-11.38 8.18,-20.98 8.18,-28.81 0,-33.78 -43.74,-40.9 -86.07,-40.9 -52.29,0 -94.61,16.71 -94.61,71.49 0,95.68 157.92,37.7 157.92,112.39 0,28.46 -21.34,47.3 -61.53,47.3 -40.19,0 -82.87,-6.05 -82.87,-43.39l0 0zm324.01 37.34c0,0 -16.01,9.6 -41.97,9.6 -30.59,0 -42.32,-13.51 -42.32,-29.16 0,-42.32 77.53,-26.67 84.29,-50.5l0 70.06zm-112.75 -19.92c0,38.41 33.43,52.29 65.8,52.29 19.56,0 34.5,-6.4 50.86,-6.4 7.47,0 14.94,1.06 23.48,4.62l0 -127.33c0,-35.92 -24.54,-57.26 -69.71,-57.26 -34.5,0 -65.09,12.45 -65.09,36.63 0,7.47 2.85,16.36 9.6,25.97 0,-24.9 22.41,-37.7 55.49,-37.7 33.08,0 41.26,12.81 41.26,30.94 -12.45,34.15 -111.68,9.6 -111.68,78.25zm416.49 32.72c0,17.43 28.46,17.78 28.46,17.78l0 -130.18c0,-38.41 -32.73,-54.42 -65.09,-54.42 -36.28,0 -55.48,12.81 -62.24,19.21 -9.6,-13.16 -33.43,-19.21 -53.35,-19.21 -20.27,0 -37.7,8.18 -55.84,8.18 -6.4,0 -20.27,-6.4 -20.27,-6.4l0 165.03c0,17.78 28.45,17.78 28.45,17.78l0 -152.58c0,0 16.72,-8.18 42.68,-8.18 31.66,0 43.04,10.31 43.04,34.85l0 108.12c0,17.78 28.45,17.78 28.45,17.78l0 -131.95c0,-16.01 16.72,-28.81 42.68,-28.81 27.39,0 43.04,10.31 43.04,34.85l0 108.12zm106.7 -147.25c0,-17.43 -28.45,-17.78 -28.45,-17.78l0 131.24c0,41.97 34.14,53.35 66.51,53.35 20.27,0 35.92,-7.47 52.99,-7.47 7.12,0 14.94,1.42 23.12,5.69l0 -165.03c0,-17.78 -28.45,-17.78 -28.45,-17.78l0 153.29c0,0 -16.72,7.47 -42.68,7.47 -31.65,0 -43.04,-12.8 -43.04,-34.85l0 -108.12zm292.72 104.21c0,24.9 -25.96,37.7 -56.91,37.7 -33.08,0 -46.95,-12.81 -46.95,-37.7l0 -25.96c8.54,6.05 27.04,8.54 39.13,8.54 52.28,0 71.84,-23.83 71.84,-52.64 0,-32.37 -22.41,-53.71 -67.58,-53.71 -45.17,0 -71.84,21.34 -71.84,57.26l0 71.85c0,35.92 28.1,57.26 73.27,57.26 34.85,0 68.29,-12.81 68.29,-37.7 0,-7.47 -2.85,-15.65 -9.25,-24.9zm-103.86 -61.17c0,-24.9 11.74,-39.48 43.39,-39.48 29.16,0 39.12,12.45 39.12,30.59 0,17.43 -11.74,27.74 -45.53,27.74 -15.29,0 -36.63,-5.69 -36.99,-6.4l0 -12.45zm154.01 71.49c0,27.03 10.32,50.5 33.08,50.5 6.4,0 13.52,-2.49 20.98,-8.89 -19.2,0 -25.61,-31.65 -25.61,-52.99l0 -189.22c0,-17.43 -26.67,-17.78 -28.46,-17.78l0 218.38zm183.17 30.23c0,17.43 29.52,17.78 29.52,17.78l43.74 0c51.93,0 87.49,-18.85 87.49,-61.88l0 -10.67c0,-24.54 -13.51,-44.46 -33.43,-53.71 18.14,-8.54 29.88,-27.74 29.88,-51.93l0 -10.67c0,-44.81 -35.21,-60.11 -83.94,-60.11l-73.26 0 0 231.18zm76.11 -96.03c38.06,0 54.77,17.43 54.77,46.59 0,30.23 -17.43,42.68 -57.62,42.68l-43.39 0 0 -89.27 46.23 0zm-2.85 -110.62c36.63,0 54.06,10.67 54.06,40.9 0,29.52 -13.16,45.17 -51.22,45.17l-46.23 0 0 -86.07 43.39 0zm239.37 196.33c0,0 -16.01,9.6 -41.97,9.6 -30.59,0 -42.32,-13.51 -42.32,-29.16 0,-42.32 77.53,-26.67 84.29,-50.5l0 70.06zm-112.75 -19.92c0,38.41 33.43,52.29 65.8,52.29 19.56,0 34.5,-6.4 50.86,-6.4 7.47,0 14.94,1.06 23.48,4.62l0 -127.33c0,-35.92 -24.54,-57.26 -69.71,-57.26 -34.5,0 -65.09,12.45 -65.09,36.63 0,7.47 2.85,16.36 9.6,25.97 0,-24.9 22.41,-37.7 55.49,-37.7 33.08,0 41.26,12.81 41.26,30.94 -12.45,34.15 -111.68,9.6 -111.68,78.25zm58.33 -171.08c-13.52,12.8 15.65,17.43 15.65,17.43l28.45 -23.12c29.88,-24.54 4.63,-41.62 -10.31,-46.59 1.42,2.85 2.13,5.33 2.13,8.18 0,7.83 -7.47,16.36 -15.65,24.54l-20.27 19.56zm258.57 160.76c0,24.9 -25.96,37.7 -56.91,37.7 -33.08,0 -46.95,-12.81 -46.95,-37.7l0 -25.96c8.54,6.05 27.04,8.54 39.13,8.54 52.28,0 71.84,-23.83 71.84,-52.64 0,-32.37 -22.41,-53.71 -67.58,-53.71 -45.17,0 -71.84,21.34 -71.84,57.26l0 71.85c0,35.92 28.1,57.26 73.27,57.26 34.85,0 68.29,-12.81 68.29,-37.7 0,-7.47 -2.85,-15.65 -9.25,-24.9zm-103.86 -61.17c0,-24.9 11.74,-39.48 43.39,-39.48 29.16,0 39.12,12.45 39.12,30.59 0,17.43 -11.74,27.74 -45.53,27.74 -15.29,0 -36.63,-5.69 -36.99,-6.4l0 -12.45zm244.7 -33.79c-22.05,59.04 -102.08,86.07 -102.08,143.33 0,3.2 0,6.76 0.71,9.96l119.15 0c17.78,0 17.78,-24.54 17.78,-24.54l-106.7 0c4.27,-29.16 81.8,-69.71 98.88,-127.33 2.49,-8.18 3.2,-17.43 5.69,-25.96l-113.46 0c-17.78,0 -17.78,24.54 -17.78,24.54l97.81 0z"/>
 </g>
</svg>
